<svg width="28" height="28" viewBox="0 0 28 28" fill="none" xmlns="http://www.w3.org/2000/svg">
<rect width="28" height="28" rx="8" fill="#635BFF"/>
<path d="M16.6667 11.3333C18.8743 11.3333 20.6667 13.1257 20.6667 15.3333V20H18V15.3333C18 14.5974 17.4025 14 16.6667 14C15.9308 14 15.3333 14.5974 15.3333 15.3333V20H12.6667V15.3333C12.6667 13.1257 14.459 11.3333 16.6667 11.3333M7.33333 12H9.99999V20H7.33333L16.6667 11.3333" stroke="white" stroke-width="1.33333" stroke-linecap="round" stroke-linejoin="round"/>
<path d="M7.33333 8.66667C7.33333 9.40255 7.93077 10 8.66666 10C9.40255 10 9.99999 9.40255 9.99999 8.66667C9.99999 7.93078 9.40255 7.33333 8.66666 7.33333C7.93077 7.33333 7.33333 7.93078 7.33333 8.66667V8.66667" stroke="white" stroke-width="1.33333" stroke-linecap="round" stroke-linejoin="round"/>
</svg>
