<svg width="353" height="246" viewBox="0 0 353 246" fill="none" xmlns="http://www.w3.org/2000/svg">
<rect width="260.253" height="151.413" rx="16" transform="matrix(0.990268 0 -0.0145476 0.994522 49.9598 18)" fill="white"/>
<g filter="url(#filter0_ddi_1_146)">
<rect width="257.72" height="150.6" rx="16" transform="matrix(0.990268 0 -0.0145476 0.994522 49.9598 18)" fill="white" fill-opacity="0.01" shape-rendering="crispEdges"/>
</g>
<rect width="35.3093" height="36.9169" rx="17.6546" transform="matrix(0.990268 0 -0.0145476 0.994522 68.3499 38.41)" fill="#E0E6FF"/>
<path d="M77.4627 56.7673C77.397 61.2579 80.9738 64.9036 85.4451 64.9036C89.9164 64.9036 93.5999 61.2579 93.6656 56.7673C93.7313 52.2768 90.1545 48.6311 85.6832 48.6311C81.2119 48.6311 77.5284 52.2768 77.4627 56.7673V56.7673" stroke="#635BFF" stroke-width="1.63621" stroke-linecap="round" stroke-linejoin="round"/>
<path d="M83.1337 56.7673L84.7302 58.3946L88.0184 55.1401" stroke="#635BFF" stroke-width="1.63621" stroke-linecap="round" stroke-linejoin="round"/>
<path d="M119.338 53.9254C118.558 53.9254 117.881 53.803 117.308 53.5584C116.734 53.3137 116.289 52.9579 115.973 52.4909C115.656 52.0239 115.489 51.4565 115.471 50.7888H117.252C117.276 51.1434 117.382 51.4381 117.57 51.6729C117.757 51.9077 118.006 52.0831 118.315 52.1991C118.625 52.3151 118.968 52.3732 119.346 52.3732C119.744 52.3732 120.095 52.3122 120.401 52.1904C120.707 52.0686 120.947 51.8974 121.123 51.6768C121.299 51.4563 121.388 51.2013 121.393 50.9117C121.397 50.6474 121.324 50.4292 121.174 50.257C121.025 50.0849 120.815 49.9396 120.543 49.8213C120.272 49.7029 119.954 49.5979 119.589 49.5063L118.448 49.2061C117.611 48.9897 116.96 48.6608 116.493 48.2197C116.026 47.7785 115.798 47.2005 115.808 46.4856C115.817 45.8885 115.986 45.3659 116.314 44.918C116.642 44.4702 117.085 44.1223 117.644 43.8743C118.203 43.6264 118.834 43.5025 119.537 43.5025C120.256 43.5025 120.883 43.6272 121.42 43.8768C121.956 44.1263 122.374 44.4703 122.673 44.9085C122.972 45.3468 123.124 45.8489 123.129 46.4149H121.377C121.338 45.9796 121.149 45.6427 120.811 45.404C120.473 45.1653 120.032 45.046 119.489 45.046C119.111 45.046 118.784 45.1035 118.508 45.2185C118.232 45.3336 118.019 45.4913 117.87 45.6918C117.72 45.8924 117.644 46.1211 117.64 46.378C117.636 46.6613 117.719 46.8935 117.89 47.0745C118.061 47.2556 118.277 47.4004 118.54 47.5091C118.803 47.6178 119.069 47.7061 119.337 47.7741L120.277 48.0161C120.648 48.105 121.01 48.2251 121.361 48.3764C121.712 48.5278 122.027 48.7179 122.306 48.9466C122.585 49.1753 122.805 49.4521 122.966 49.7769C123.127 50.1018 123.204 50.4844 123.198 50.9248C123.189 51.5185 123.031 52.0411 122.723 52.4927C122.415 52.9442 121.975 53.2958 121.403 53.5476C120.83 53.7995 120.142 53.9254 119.338 53.9254ZM128.014 53.9216C127.279 53.9216 126.643 53.758 126.107 53.4308C125.571 53.1037 125.159 52.6459 124.871 52.0576C124.584 51.4692 124.446 50.7852 124.457 50.0056C124.469 49.2174 124.627 48.5283 124.931 47.9385C125.236 47.3486 125.662 46.8902 126.207 46.563C126.753 46.2359 127.394 46.0723 128.128 46.0723C128.551 46.0723 128.941 46.1272 129.301 46.2371C129.66 46.347 129.98 46.5045 130.262 46.7096C130.544 46.9147 130.778 47.1647 130.964 47.4596C131.151 47.7545 131.283 48.0869 131.36 48.4569L129.706 48.8047C129.663 48.6082 129.595 48.4304 129.504 48.2713C129.412 48.1122 129.299 47.9755 129.166 47.8611C129.032 47.7467 128.878 47.6591 128.703 47.5983C128.528 47.5374 128.334 47.507 128.122 47.507C127.712 47.507 127.37 47.6164 127.096 47.835C126.821 48.0536 126.613 48.3505 126.472 48.7256C126.33 49.1007 126.256 49.5257 126.249 50.0007C126.242 50.4683 126.304 50.8897 126.435 51.265C126.565 51.6403 126.764 51.9377 127.033 52.1574C127.301 52.377 127.64 52.4868 128.049 52.4868C128.264 52.4868 128.462 52.4553 128.642 52.3922C128.821 52.3291 128.982 52.2385 129.122 52.1204C129.262 52.0023 129.381 51.8595 129.478 51.6922C129.574 51.5249 129.646 51.3392 129.694 51.1353L131.333 51.4806C131.248 51.8614 131.107 52.2014 130.91 52.5008C130.713 52.8002 130.471 53.0562 130.182 53.2688C129.894 53.4813 129.566 53.6433 129.2 53.7546C128.834 53.8659 128.439 53.9216 128.014 53.9216ZM132.809 53.7682L132.92 46.1675H134.625L134.606 47.4396H134.687C134.832 46.9989 135.075 46.6594 135.416 46.4211C135.757 46.1827 136.145 46.0636 136.578 46.0636C136.678 46.0636 136.789 46.0683 136.91 46.0777C137.032 46.0872 137.135 46.0999 137.22 46.1158L137.196 47.7404C137.125 47.7166 137.008 47.6953 136.845 47.6763C136.682 47.6574 136.523 47.6479 136.369 47.6479C136.042 47.6479 135.748 47.7181 135.486 47.8585C135.224 47.9989 135.018 48.1927 134.867 48.4399C134.717 48.6871 134.639 48.9732 134.634 49.298L134.569 53.7682H132.809ZM140.298 53.9254C139.818 53.9254 139.388 53.8384 139.006 53.6644C138.625 53.4905 138.326 53.2331 138.109 52.8923C137.892 52.5514 137.787 52.1309 137.794 51.6307C137.8 51.2022 137.886 50.8478 138.05 50.5677C138.214 50.2876 138.435 50.0637 138.711 49.8959C138.988 49.7281 139.299 49.6012 139.644 49.5152C139.988 49.4292 140.344 49.3668 140.712 49.328C141.154 49.2788 141.512 49.236 141.786 49.1993C142.061 49.1627 142.263 49.1038 142.394 49.0227C142.525 48.9416 142.591 48.8154 142.594 48.6443L142.594 48.6084C142.598 48.358 142.551 48.1462 142.453 47.9729C142.355 47.7996 142.209 47.6666 142.015 47.5741C141.821 47.4815 141.579 47.4352 141.291 47.4352C140.998 47.4352 140.743 47.4805 140.527 47.5709C140.311 47.6614 140.133 47.779 139.995 47.9237C139.858 48.0683 139.756 48.225 139.69 48.3936L138.063 48.0574C138.22 47.6082 138.456 47.2374 138.772 46.9449C139.088 46.6525 139.463 46.434 139.897 46.2893C140.331 46.1446 140.8 46.0723 141.303 46.0723C141.659 46.0723 142.017 46.1147 142.379 46.1996C142.741 46.2844 143.072 46.4256 143.373 46.6232C143.673 46.8209 143.914 47.0878 144.094 47.424C144.274 47.7602 144.36 48.1811 144.353 48.6867L144.278 53.7682H142.595L142.611 52.7201H142.539C142.426 52.9361 142.269 53.1356 142.067 53.3188C141.866 53.502 141.619 53.6489 141.327 53.7595C141.034 53.8701 140.691 53.9254 140.298 53.9254ZM140.769 52.6119C141.132 52.6119 141.448 52.5398 141.715 52.3957C141.982 52.2516 142.19 52.0599 142.339 51.8207C142.488 51.5815 142.564 51.3216 142.568 51.0412L142.582 50.1416C142.523 50.1891 142.426 50.233 142.289 50.2732C142.152 50.3135 141.998 50.3493 141.827 50.3806C141.656 50.412 141.489 50.4389 141.325 50.4614C141.161 50.4839 141.022 50.5027 140.908 50.518C140.644 50.5526 140.405 50.6116 140.193 50.6951C139.98 50.7786 139.813 50.8939 139.69 51.041C139.566 51.1882 139.503 51.3782 139.5 51.6112C139.497 51.83 139.549 52.0135 139.658 52.1617C139.767 52.3099 139.917 52.422 140.109 52.498C140.3 52.5739 140.52 52.6119 140.769 52.6119ZM146.103 56.61L146.256 46.1675H147.98L147.962 47.426H148.073C148.166 47.246 148.297 47.0508 148.467 46.8405C148.636 46.6302 148.865 46.4496 149.154 46.2987C149.443 46.1478 149.812 46.0723 150.261 46.0723C150.846 46.0723 151.371 46.222 151.836 46.5213C152.301 46.8206 152.667 47.2613 152.936 47.8433C153.204 48.4253 153.333 49.1387 153.32 49.9833C153.308 50.8146 153.162 51.5223 152.883 52.1066C152.604 52.6909 152.227 53.1371 151.752 53.445C151.278 53.7529 150.741 53.9069 150.141 53.9069C149.708 53.9069 149.349 53.8327 149.064 53.6844C148.778 53.5361 148.552 53.3582 148.384 53.1507C148.216 52.9433 148.087 52.7481 147.997 52.5651H147.922L147.863 56.61H146.103ZM149.685 52.4526C150.079 52.4526 150.411 52.3449 150.68 52.1296C150.95 51.9143 151.155 51.6196 151.296 51.2455C151.438 50.8714 151.512 50.4478 151.519 49.9746C151.526 49.5027 151.464 49.0826 151.335 48.7143C151.206 48.346 151.01 48.056 150.747 47.8442C150.484 47.6325 150.154 47.5266 149.757 47.5266C149.37 47.5266 149.042 47.6281 148.771 47.8312C148.501 48.0342 148.295 48.3185 148.152 48.6839C148.009 49.0493 147.934 49.4795 147.927 49.9746C147.92 50.4665 147.983 50.8983 148.116 51.2702C148.25 51.642 148.449 51.932 148.715 52.1402C148.981 52.3485 149.304 52.4526 149.685 52.4526ZM158.137 53.9216C157.378 53.9216 156.726 53.7613 156.181 53.4406C155.636 53.12 155.22 52.6674 154.933 52.0827C154.646 51.498 154.508 50.8086 154.52 50.0143C154.531 49.2331 154.687 48.5469 154.988 47.9556C155.289 47.3643 155.708 46.9026 156.247 46.5705C156.786 46.2384 157.416 46.0723 158.136 46.0723C158.599 46.0723 159.038 46.1473 159.452 46.2973C159.867 46.4473 160.232 46.6781 160.55 46.9897C160.868 47.3012 161.115 47.6987 161.293 48.182C161.471 48.6653 161.555 49.2411 161.545 49.9094L161.537 50.4609H155.344L155.362 49.2611H160.676L159.849 49.6173C159.855 49.1873 159.794 48.8103 159.667 48.4864C159.54 48.1626 159.347 47.9103 159.09 47.7296C158.833 47.549 158.511 47.4586 158.126 47.4586C157.74 47.4586 157.41 47.5504 157.136 47.734C156.862 47.9175 156.651 48.1626 156.504 48.469C156.358 48.7755 156.282 49.1162 156.276 49.4911L156.264 50.3222C156.257 50.8026 156.332 51.2078 156.49 51.5379C156.647 51.8679 156.872 52.1167 157.163 52.2841C157.454 52.4515 157.793 52.5352 158.181 52.5352C158.438 52.5352 158.672 52.4983 158.884 52.4244C159.095 52.3505 159.278 52.2402 159.432 52.0935C159.585 51.9467 159.704 51.7654 159.787 51.5494L161.399 51.8856C161.272 52.2924 161.06 52.6486 160.761 52.9541C160.462 53.2597 160.091 53.4973 159.648 53.667C159.205 53.8367 158.701 53.9216 158.137 53.9216ZM170.865 53.9042C169.982 53.9042 169.195 53.6982 168.505 53.2863C167.816 52.8744 167.276 52.2806 166.887 51.505C166.498 50.7293 166.311 49.7977 166.327 48.7101C166.343 47.6164 166.558 46.6813 166.973 45.9048C167.387 45.1283 167.945 44.5338 168.648 44.1213C169.351 43.7087 170.14 43.5025 171.017 43.5025C171.569 43.5025 172.085 43.5809 172.563 43.7378C173.042 43.8947 173.467 44.124 173.839 44.4257C174.21 44.7274 174.514 45.0951 174.752 45.529C174.989 45.9628 175.144 46.4566 175.217 47.0105H173.394C173.343 46.7088 173.247 46.442 173.108 46.2102C172.968 45.9783 172.794 45.7815 172.584 45.6198C172.374 45.4581 172.137 45.336 171.872 45.2535C171.607 45.171 171.324 45.1297 171.022 45.1297C170.471 45.1297 169.98 45.2687 169.55 45.5468C169.119 45.8248 168.78 46.23 168.532 46.7623C168.283 47.2947 168.154 47.944 168.142 48.7101C168.131 49.4831 168.243 50.1354 168.479 50.667C168.715 51.1986 169.043 51.5998 169.464 51.8706C169.885 52.1415 170.368 52.2769 170.913 52.2769C171.215 52.2769 171.499 52.2349 171.765 52.151C172.031 52.067 172.272 51.9449 172.489 51.7847C172.705 51.6244 172.887 51.4276 173.035 51.1943C173.183 50.961 173.288 50.6949 173.35 50.3961H175.172C175.099 50.8818 174.945 51.336 174.71 51.7586C174.475 52.1812 174.172 52.5538 173.799 52.8765C173.425 53.1992 172.992 53.4512 172.499 53.6324C172.005 53.8136 171.46 53.9042 170.865 53.9042ZM179.985 53.9216C179.25 53.9216 178.614 53.758 178.077 53.4308C177.54 53.1037 177.128 52.6459 176.84 52.0576C176.552 51.4692 176.414 50.7852 176.426 50.0056C176.437 49.2174 176.595 48.5283 176.9 47.9385C177.205 47.3486 177.631 46.8902 178.177 46.563C178.724 46.2359 179.365 46.0723 180.1 46.0723C180.837 46.0723 181.474 46.2359 182.011 46.563C182.548 46.8902 182.961 47.3486 183.248 47.9385C183.536 48.5283 183.674 49.2174 183.662 50.0056C183.651 50.7852 183.493 51.4692 183.188 52.0576C182.883 52.6459 182.457 53.1037 181.911 53.4308C181.364 53.758 180.722 53.9216 179.985 53.9216ZM180.006 52.4868C180.417 52.4868 180.759 52.3758 181.035 52.1537C181.31 51.9316 181.517 51.6325 181.656 51.2564C181.795 50.8803 181.868 50.4618 181.874 50.0007C181.881 49.5352 181.821 49.1141 181.693 48.7376C181.564 48.361 181.366 48.0618 181.098 47.8399C180.829 47.618 180.489 47.507 180.079 47.507C179.669 47.507 179.328 47.618 179.055 47.8399C178.782 48.0618 178.576 48.3603 178.437 48.7354C178.298 49.1105 178.225 49.5323 178.218 50.0007C178.211 50.4618 178.272 50.8803 178.4 51.2564C178.528 51.6325 178.725 51.9316 178.992 52.1537C179.258 52.3758 179.596 52.4868 180.006 52.4868ZM185.144 53.7682L185.255 46.1675H186.907L186.948 47.9944H186.819C186.936 47.5444 187.111 47.1764 187.342 46.8904C187.574 46.6044 187.843 46.3922 188.15 46.2538C188.457 46.1154 188.777 46.0462 189.11 46.0462C189.656 46.0462 190.095 46.2186 190.426 46.5634C190.758 46.9082 190.988 47.4142 191.116 48.0814H190.905C191.017 47.6289 191.2 47.2517 191.455 46.95C191.71 46.6482 192.011 46.4221 192.359 46.2718C192.707 46.1214 193.077 46.0462 193.469 46.0462C193.923 46.0462 194.33 46.1454 194.689 46.344C195.049 46.5425 195.332 46.834 195.537 47.2184C195.743 47.6028 195.841 48.0774 195.833 48.6421L195.758 53.7682H193.999L194.07 48.9135C194.076 48.4434 193.953 48.0991 193.7 47.8805C193.447 47.662 193.14 47.5527 192.779 47.5527C192.496 47.5527 192.25 47.6139 192.041 47.7363C191.832 47.8587 191.671 48.0278 191.556 48.2436C191.442 48.4594 191.383 48.7103 191.378 48.9962L191.309 53.7682H189.593L189.665 48.8352C189.671 48.4463 189.556 48.1354 189.32 47.9023C189.084 47.6692 188.779 47.5527 188.404 47.5527C188.148 47.5527 187.911 47.6125 187.695 47.7319C187.478 47.8514 187.305 48.0263 187.174 48.2566C187.044 48.487 186.976 48.7712 186.971 49.1093L186.903 53.7682H185.144ZM197.585 56.61L197.738 46.1675H199.461L199.443 47.426H199.554C199.647 47.246 199.779 47.0508 199.948 46.8405C200.118 46.6302 200.347 46.4496 200.635 46.2987C200.924 46.1478 201.293 46.0723 201.743 46.0723C202.327 46.0723 202.852 46.222 203.317 46.5213C203.782 46.8206 204.149 47.2613 204.417 47.8433C204.686 48.4253 204.814 49.1387 204.802 49.9833C204.789 50.8146 204.644 51.5223 204.364 52.1066C204.085 52.6909 203.708 53.1371 203.233 53.445C202.759 53.7529 202.222 53.9069 201.623 53.9069C201.19 53.9069 200.831 53.8327 200.545 53.6844C200.26 53.5361 200.033 53.3582 199.865 53.1507C199.697 52.9433 199.568 52.7481 199.479 52.5651H199.403L199.344 56.61H197.585ZM201.166 52.4526C201.561 52.4526 201.892 52.3449 202.162 52.1296C202.431 51.9143 202.636 51.6196 202.778 51.2455C202.919 50.8714 202.993 50.4478 203 49.9746C203.007 49.5027 202.946 49.0826 202.817 48.7143C202.688 48.346 202.492 48.056 202.229 47.8442C201.966 47.6325 201.635 47.5266 201.238 47.5266C200.851 47.5266 200.523 47.6281 200.253 47.8312C199.983 48.0342 199.776 48.3185 199.633 48.6839C199.491 49.0493 199.416 49.4795 199.408 49.9746C199.401 50.4665 199.464 50.8983 199.598 51.2702C199.731 51.642 199.931 51.932 200.196 52.1402C200.462 52.3485 200.785 52.4526 201.166 52.4526ZM208.185 43.6384L208.037 53.7682H206.278L206.426 43.6384H208.185ZM213.246 53.9216C212.488 53.9216 211.836 53.7613 211.291 53.4406C210.746 53.12 210.33 52.6674 210.043 52.0827C209.756 51.498 209.618 50.8086 209.63 50.0143C209.641 49.2331 209.797 48.5469 210.098 47.9556C210.398 47.3643 210.818 46.9026 211.357 46.5705C211.896 46.2384 212.526 46.0723 213.246 46.0723C213.709 46.0723 214.148 46.1473 214.562 46.2973C214.976 46.4473 215.342 46.6781 215.66 46.9897C215.978 47.3012 216.225 47.6987 216.403 48.182C216.58 48.6653 216.664 49.2411 216.655 49.9094L216.646 50.4609H210.454L210.471 49.2611H215.786L214.958 49.6173C214.965 49.1873 214.904 48.8103 214.777 48.4864C214.649 48.1626 214.457 47.9103 214.2 47.7296C213.943 47.549 213.621 47.4586 213.235 47.4586C212.849 47.4586 212.519 47.5504 212.245 47.734C211.971 47.9175 211.761 48.1626 211.614 48.469C211.468 48.7755 211.391 49.1162 211.386 49.4911L211.374 50.3222C211.367 50.8026 211.442 51.2078 211.6 51.5379C211.757 51.8679 211.981 52.1167 212.273 52.2841C212.564 52.4515 212.903 52.5352 213.29 52.5352C213.548 52.5352 213.782 52.4983 213.994 52.4244C214.205 52.3505 214.388 52.2402 214.541 52.0935C214.695 51.9467 214.814 51.7654 214.897 51.5494L216.509 51.8856C216.382 52.2924 216.169 52.6486 215.871 52.9541C215.572 53.2597 215.201 53.4973 214.758 53.667C214.315 53.8367 213.811 53.9216 213.246 53.9216ZM221.715 46.1675L221.695 47.5522H217.397L217.417 46.1675H221.715ZM218.518 44.3591H220.277L220.171 51.6278C220.167 51.9024 220.223 52.1041 220.338 52.2327C220.453 52.3613 220.646 52.4256 220.916 52.4256C220.995 52.4256 221.1 52.4162 221.233 52.3972C221.366 52.3783 221.473 52.3597 221.555 52.3416L221.812 53.7054C221.618 53.7654 221.42 53.8079 221.218 53.833C221.016 53.8582 220.821 53.8707 220.632 53.8707C219.908 53.8707 219.354 53.6896 218.97 53.3274C218.586 52.9652 218.399 52.4491 218.409 51.7792L218.518 44.3591ZM226.203 53.9216C225.444 53.9216 224.792 53.7613 224.247 53.4406C223.702 53.12 223.286 52.6674 222.999 52.0827C222.712 51.498 222.575 50.8086 222.586 50.0143C222.598 49.2331 222.754 48.5469 223.054 47.9556C223.355 47.3643 223.775 46.9026 224.314 46.5705C224.853 46.2384 225.482 46.0723 226.202 46.0723C226.666 46.0723 227.105 46.1473 227.519 46.2973C227.933 46.4473 228.299 46.6781 228.617 46.9897C228.934 47.3012 229.182 47.6987 229.359 48.182C229.537 48.6653 229.621 49.2411 229.611 49.9094L229.603 50.4609H223.41L223.428 49.2611H228.742L227.915 49.6173C227.921 49.1873 227.861 48.8103 227.733 48.4864C227.606 48.1626 227.414 47.9103 227.157 47.7296C226.899 47.549 226.578 47.4586 226.192 47.4586C225.806 47.4586 225.476 47.5504 225.202 47.734C224.928 47.9175 224.718 48.1626 224.571 48.469C224.424 48.7755 224.348 49.1162 224.343 49.4911L224.33 50.3222C224.323 50.8026 224.399 51.2078 224.556 51.5379C224.714 51.8679 224.938 52.1167 225.229 52.2841C225.521 52.4515 225.86 52.5352 226.247 52.5352C226.504 52.5352 226.739 52.4983 226.95 52.4244C227.162 52.3505 227.344 52.2402 227.498 52.0935C227.652 51.9467 227.77 51.7654 227.854 51.5494L229.465 51.8856C229.339 52.2924 229.126 52.6486 228.827 52.9541C228.528 53.2597 228.157 53.4973 227.714 53.667C227.271 53.8367 226.767 53.9216 226.203 53.9216Z" fill="#0A2540"/>
<path d="M117.967 70.3099C117.142 70.3099 116.473 70.0658 115.96 69.5776C115.448 69.0894 115.198 68.395 115.211 67.4944L115.219 66.9893H116.413L116.406 67.4944C116.397 68.0667 116.538 68.5034 116.826 68.8043C117.115 69.1052 117.501 69.2557 117.983 69.2557C118.46 69.2557 118.848 69.1052 119.146 68.8043C119.444 68.5034 119.597 68.0667 119.605 67.4944L119.703 60.7775H120.898L120.799 67.4944C120.786 68.395 120.517 69.0894 119.993 69.5776C119.468 70.0658 118.793 70.3099 117.967 70.3099ZM125.266 70.272C124.792 70.272 124.378 70.1742 124.022 69.9785C123.667 69.7828 123.393 69.4871 123.199 69.0915C123.006 68.6959 122.914 68.2014 122.922 67.608L122.988 63.1259H124.119L124.055 67.5133C124.047 68.0562 124.184 68.4813 124.464 68.7885C124.745 69.0957 125.13 69.2494 125.62 69.2494C125.955 69.2494 126.257 69.1757 126.525 69.0284C126.794 68.8811 127.007 68.6654 127.167 68.3813C127.326 68.0973 127.408 67.7553 127.414 67.3555L127.476 63.1259H128.614L128.511 70.1837H127.417L127.442 68.4729H127.593C127.365 69.1336 127.049 69.5987 126.645 69.868C126.241 70.1374 125.781 70.272 125.266 70.272ZM132.883 70.3352C132.401 70.3352 131.974 70.2647 131.601 70.1237C131.228 69.9827 130.922 69.7733 130.683 69.4956C130.444 69.2178 130.286 68.8769 130.208 68.4729L131.286 68.214C131.381 68.6012 131.567 68.8853 131.843 69.0663C132.119 69.2473 132.466 69.3377 132.885 69.3377C133.376 69.3377 133.768 69.2325 134.062 69.0221C134.357 68.8117 134.506 68.5613 134.51 68.2709C134.514 68.0268 134.432 67.8237 134.264 67.6617C134.097 67.4996 133.84 67.3786 133.493 67.2987L132.328 67.0209C131.694 66.8694 131.224 66.6348 130.918 66.317C130.613 65.9993 130.464 65.5921 130.471 65.0955C130.477 64.6915 130.595 64.3348 130.826 64.0255C131.057 63.7161 131.369 63.4741 131.764 63.2995C132.158 63.1248 132.605 63.0375 133.103 63.0375C133.585 63.0375 133.994 63.1101 134.329 63.2553C134.664 63.4005 134.936 63.6004 135.144 63.855C135.352 64.1096 135.505 64.4032 135.605 64.7356L134.577 65.0008C134.484 64.7483 134.327 64.5189 134.106 64.3127C133.885 64.1065 133.548 64.0034 133.095 64.0034C132.676 64.0034 132.326 64.1002 132.045 64.2937C131.763 64.4873 131.62 64.7314 131.616 65.026C131.612 65.287 131.703 65.4964 131.89 65.6542C132.076 65.812 132.374 65.9393 132.783 66.0361L133.841 66.2886C134.476 66.4401 134.944 66.6748 135.245 66.9925C135.547 67.3103 135.694 67.7111 135.687 68.1951C135.681 68.6076 135.559 68.9748 135.322 69.2967C135.084 69.6187 134.756 69.8722 134.336 70.0574C133.917 70.2426 133.432 70.3352 132.883 70.3352ZM140.161 63.1259L140.147 64.098H136.514L136.528 63.1259H140.161ZM137.608 61.4466H138.74L138.639 68.3529C138.634 68.6686 138.695 68.899 138.82 69.0442C138.946 69.1894 139.158 69.262 139.455 69.262C139.526 69.262 139.618 69.2536 139.729 69.2367C139.84 69.2199 139.942 69.2031 140.035 69.1862L140.253 70.1458C140.135 70.1879 140.002 70.2194 139.853 70.2405C139.704 70.2615 139.556 70.272 139.409 70.272C138.801 70.272 138.33 70.1111 137.995 69.7891C137.661 69.4672 137.498 69.0179 137.506 68.4413L137.608 61.4466ZM146.318 65.954L146.256 70.1837H145.124L145.227 63.1259H146.315L146.296 64.8367H146.139C146.362 64.1843 146.674 63.7214 147.074 63.4478C147.474 63.1743 147.94 63.0375 148.472 63.0375C148.946 63.0375 149.359 63.1353 149.713 63.331C150.066 63.5267 150.339 63.8213 150.532 64.2148C150.726 64.6083 150.818 65.1039 150.809 65.7015L150.744 70.1837H149.612L149.676 65.7962C149.684 65.2533 149.549 64.8282 149.271 64.521C148.992 64.2138 148.608 64.0602 148.118 64.0602C147.783 64.0602 147.48 64.1338 147.209 64.2811C146.939 64.4284 146.724 64.6431 146.565 64.925C146.406 65.207 146.323 65.55 146.318 65.954ZM155.588 70.3352C154.951 70.3352 154.395 70.1837 153.919 69.8807C153.444 69.5776 153.076 69.1526 152.816 68.6054C152.556 68.0583 152.431 67.4228 152.442 66.699C152.452 65.9625 152.596 65.3196 152.872 64.7704C153.148 64.2211 153.529 63.795 154.013 63.492C154.497 63.189 155.058 63.0375 155.695 63.0375C156.336 63.0375 156.895 63.189 157.373 63.492C157.85 63.795 158.219 64.2211 158.479 64.7704C158.739 65.3196 158.864 65.9625 158.853 66.699C158.843 67.4228 158.699 68.0583 158.423 68.6054C158.147 69.1526 157.766 69.5776 157.279 69.8807C156.793 70.1837 156.229 70.3352 155.588 70.3352ZM155.603 69.3188C156.076 69.3188 156.468 69.1968 156.777 68.9527C157.087 68.7086 157.318 68.3877 157.47 67.9899C157.623 67.5922 157.702 67.1619 157.709 66.699C157.716 66.2318 157.649 65.7973 157.508 65.3953C157.367 64.9934 157.146 64.6694 156.844 64.4232C156.541 64.177 156.153 64.0539 155.68 64.0539C155.21 64.0539 154.823 64.177 154.518 64.4232C154.213 64.6694 153.984 64.9924 153.831 65.3922C153.679 65.792 153.599 66.2276 153.592 66.699C153.585 67.1619 153.652 67.5922 153.793 67.9899C153.934 68.3877 154.153 68.7086 154.452 68.9527C154.75 69.1968 155.133 69.3188 155.603 69.3188ZM161.794 70.1837L159.767 63.1259H160.967L161.777 66.2066C161.888 66.6274 162.007 67.104 162.133 67.6364C162.26 68.1688 162.383 68.7717 162.503 69.4451H162.308C162.443 68.8011 162.58 68.2119 162.717 67.6775C162.855 67.143 162.988 66.6527 163.116 66.2066L164.003 63.1259H165.21L165.995 66.2066C166.106 66.64 166.221 67.123 166.341 67.6554C166.461 68.1877 166.579 68.7843 166.696 69.4451H166.494C166.638 68.7927 166.78 68.2004 166.92 67.668C167.059 67.1356 167.193 66.6485 167.321 66.2066L168.221 63.1259H169.422L167.188 70.1837H166.062L165.198 66.9893C165.11 66.6653 165.025 66.3349 164.942 65.9982C164.859 65.6615 164.778 65.3164 164.699 64.9629C164.621 64.6094 164.54 64.2496 164.457 63.8834H164.709C164.62 64.2453 164.53 64.6041 164.439 64.9598C164.347 65.3154 164.255 65.6636 164.162 66.0045C164.069 66.3454 163.974 66.6737 163.878 66.9893L162.92 70.1837H161.794Z" fill="#425466"/>
<path d="M76.1084 98.0926L75.812 118.352H71.6937L71.9365 101.749H71.8012L67.1277 105.034L67.1833 101.232L71.6889 98.0926H76.1084ZM78.3171 118.352L78.3608 115.366L85.607 108.63C86.2285 108.029 86.7544 107.488 87.1847 107.006C87.6151 106.525 87.9442 106.05 88.1721 105.583C88.3999 105.116 88.5179 104.609 88.5259 104.062C88.5347 103.458 88.4058 102.938 88.1392 102.502C87.8725 102.066 87.5065 101.731 87.0413 101.496C86.576 101.261 86.0408 101.144 85.4357 101.144C84.8099 101.144 84.2618 101.271 83.7915 101.525C83.3211 101.779 82.9546 102.141 82.692 102.612C82.4295 103.083 82.2933 103.648 82.2837 104.307H78.3427C78.362 102.988 78.6772 101.843 79.2883 100.873C79.8994 99.9031 80.7411 99.1518 81.8136 98.6194C82.8861 98.0869 84.1201 97.8207 85.5155 97.8207C86.9401 97.8207 88.1808 98.0759 89.2374 98.5863C90.294 99.0968 91.1114 99.8013 91.6896 100.7C92.2679 101.598 92.5485 102.632 92.5314 103.8C92.5203 104.559 92.3626 105.304 92.0585 106.037C91.7543 106.77 91.2199 107.59 90.4551 108.499C89.6903 109.408 88.6078 110.499 87.2077 111.773L84.1097 114.795L84.1076 114.943H92.641L92.5912 118.352H78.3171ZM94.0972 114.754L94.1451 111.479L102.788 98.0926H105.581L105.514 102.665H103.85L98.3227 111.24L98.3203 111.403H110.291L110.242 114.754H94.0972ZM103.703 118.352L103.771 113.761L103.871 112.291L104.079 98.0926H107.97L107.674 118.352H103.703Z" fill="#0A2540"/>
<path d="M65.3123 144.523L65.4605 134.394H67.24L70.9483 140.422C71.0715 140.622 71.2103 140.86 71.3645 141.138C71.5188 141.415 71.6817 141.727 71.8533 142.073C72.0249 142.419 72.1938 142.796 72.3602 143.204H72.1676C72.1359 142.818 72.1124 142.436 72.097 142.058C72.0817 141.679 72.0721 141.325 72.0684 140.995C72.0646 140.665 72.0644 140.386 72.0678 140.157L72.1521 134.394H73.7136L73.5654 144.523H71.7748L68.4529 139.13C68.2748 138.835 68.1013 138.538 67.9323 138.241C67.7634 137.943 67.5769 137.598 67.3729 137.207C67.1689 136.816 66.919 136.338 66.6231 135.773H66.8685C66.8862 136.271 66.9024 136.738 66.9169 137.172C66.9314 137.606 66.9427 137.989 66.9508 138.322C66.9588 138.655 66.9614 138.921 66.9585 139.119L66.8794 144.523H65.3123ZM78.9431 144.682C78.1981 144.682 77.558 144.52 77.0228 144.196C76.4875 143.873 76.0786 143.419 75.7961 142.834C75.5136 142.249 75.3781 141.564 75.3896 140.777C75.4011 139.996 75.554 139.31 75.8486 138.717C76.1432 138.125 76.5545 137.662 77.0825 137.328C77.6106 136.994 78.2262 136.827 78.9292 136.827C79.3617 136.827 79.7786 136.898 80.1799 137.04C80.5812 137.182 80.9397 137.405 81.2554 137.709C81.5712 138.014 81.8191 138.408 81.9991 138.892C82.1791 139.376 82.2641 139.961 82.2541 140.646L82.2463 141.177H76.2121L76.2284 140.06H81.4952L80.7944 140.429C80.8012 139.964 80.7353 139.554 80.5965 139.199C80.4578 138.843 80.2483 138.565 79.9679 138.365C79.6875 138.165 79.3368 138.064 78.916 138.064C78.4951 138.064 78.1341 138.166 77.833 138.37C77.5319 138.574 77.3004 138.843 77.1387 139.176C76.9769 139.51 76.8932 139.873 76.8874 140.267L76.8763 141.026C76.8687 141.547 76.9514 141.988 77.1243 142.349C77.2972 142.71 77.5432 142.983 77.8623 143.168C78.1813 143.352 78.5527 143.445 78.9764 143.445C79.254 143.445 79.5069 143.405 79.7351 143.325C79.9633 143.245 80.1605 143.124 80.3267 142.964C80.4928 142.803 80.6214 142.604 80.7123 142.367L82.1047 142.698C81.9799 143.092 81.7719 143.438 81.4804 143.736C81.1889 144.033 80.8286 144.266 80.3994 144.432C79.9702 144.598 79.4848 144.682 78.9431 144.682ZM85.2557 144.523L83.0927 136.923H84.6647L85.4516 140.071C85.5662 140.541 85.6892 141.065 85.8207 141.645C85.9522 142.224 86.0777 142.875 86.1973 143.597H85.9801C86.12 142.901 86.2642 142.262 86.4126 141.681C86.561 141.099 86.7026 140.562 86.8374 140.071L87.7187 136.923H89.2085L89.9817 140.071C90.0977 140.552 90.2208 141.082 90.3508 141.662C90.4807 142.241 90.6054 142.886 90.7247 143.597H90.5044C90.6477 142.894 90.7917 142.252 90.9362 141.673C91.0808 141.093 91.2192 140.56 91.3515 140.071L92.2305 136.923H93.8122L91.4221 144.523H89.9264L89.0402 141.252C88.9515 140.923 88.8646 140.578 88.7795 140.217C88.6945 139.857 88.6118 139.488 88.5316 139.111C88.4513 138.734 88.3689 138.36 88.2844 137.99H88.5844C88.4937 138.357 88.4015 138.729 88.3079 139.108C88.2144 139.487 88.1199 139.859 88.0247 140.223C87.9295 140.587 87.8323 140.93 87.7332 141.252L86.7513 144.523H85.2557ZM101.598 144.674C100.987 144.674 100.445 144.517 99.9723 144.202C99.4993 143.887 99.1317 143.436 98.8695 142.85C98.6073 142.263 98.4822 141.56 98.4942 140.741C98.5062 139.917 98.654 139.214 98.9376 138.629C99.2213 138.045 99.6039 137.598 100.086 137.29C100.567 136.982 101.11 136.827 101.714 136.827C102.185 136.827 102.563 136.906 102.848 137.063C103.133 137.22 103.356 137.403 103.515 137.611C103.674 137.819 103.794 138.002 103.875 138.16H103.96L104.016 134.394H105.505L105.356 144.523H103.906L103.923 143.334H103.8C103.712 143.495 103.584 143.681 103.414 143.89C103.245 144.099 103.015 144.282 102.724 144.439C102.434 144.596 102.058 144.674 101.598 144.674ZM101.947 143.4C102.369 143.4 102.728 143.287 103.023 143.062C103.317 142.836 103.543 142.523 103.7 142.122C103.856 141.721 103.938 141.257 103.946 140.73C103.954 140.201 103.886 139.741 103.743 139.348C103.6 138.956 103.384 138.65 103.096 138.431C102.808 138.212 102.451 138.102 102.025 138.102C101.588 138.102 101.221 138.217 100.925 138.448C100.629 138.678 100.405 138.991 100.253 139.387C100.102 139.783 100.022 140.231 100.015 140.73C100.007 141.231 100.075 141.684 100.217 142.088C100.359 142.491 100.575 142.811 100.866 143.046C101.157 143.282 101.518 143.4 101.947 143.4ZM110.617 144.682C109.872 144.682 109.232 144.52 108.697 144.196C108.162 143.873 107.753 143.419 107.47 142.834C107.188 142.249 107.052 141.564 107.064 140.777C107.075 139.996 107.228 139.31 107.523 138.717C107.817 138.125 108.229 137.662 108.757 137.328C109.285 136.994 109.9 136.827 110.603 136.827C111.036 136.827 111.453 136.898 111.854 137.04C112.255 137.182 112.614 137.405 112.93 137.709C113.245 138.014 113.493 138.408 113.673 138.892C113.853 139.376 113.938 139.961 113.928 140.646L113.92 141.177H107.886L107.902 140.06H113.169L112.468 140.429C112.475 139.964 112.409 139.554 112.271 139.199C112.132 138.843 111.922 138.565 111.642 138.365C111.362 138.165 111.011 138.064 110.59 138.064C110.169 138.064 109.808 138.166 109.507 138.37C109.206 138.574 108.975 138.843 108.813 139.176C108.651 139.51 108.567 139.873 108.562 140.267L108.55 141.026C108.543 141.547 108.625 141.988 108.798 142.349C108.971 142.71 109.217 142.983 109.536 143.168C109.855 143.352 110.227 143.445 110.651 143.445C110.928 143.445 111.181 143.405 111.409 143.325C111.637 143.245 111.835 143.124 112.001 142.964C112.167 142.803 112.295 142.604 112.386 142.367L113.779 142.698C113.654 143.092 113.446 143.438 113.154 143.736C112.863 144.033 112.503 144.266 112.073 144.432C111.644 144.598 111.159 144.682 110.617 144.682ZM117.405 144.523L114.661 136.923H116.269L117.704 141.243C117.863 141.718 117.999 142.194 118.11 142.672C118.221 143.149 118.336 143.623 118.457 144.092H118.014C118.148 143.623 118.277 143.15 118.401 142.672C118.526 142.195 118.673 141.719 118.842 141.243L120.398 136.923H121.998L119.029 144.523H117.405ZM126.2 144.682C125.455 144.682 124.815 144.52 124.28 144.196C123.745 143.873 123.336 143.419 123.053 142.834C122.771 142.249 122.635 141.564 122.647 140.777C122.658 139.996 122.811 139.31 123.106 138.717C123.4 138.125 123.812 137.662 124.34 137.328C124.868 136.994 125.483 136.827 126.186 136.827C126.619 136.827 127.036 136.898 127.437 137.04C127.838 137.182 128.197 137.405 128.513 137.709C128.828 138.014 129.076 138.408 129.256 138.892C129.436 139.376 129.521 139.961 129.511 140.646L129.504 141.177H123.469L123.486 140.06H128.752L128.052 140.429C128.058 139.964 127.993 139.554 127.854 139.199C127.715 138.843 127.506 138.565 127.225 138.365C126.945 138.165 126.594 138.064 126.173 138.064C125.752 138.064 125.391 138.166 125.09 138.37C124.789 138.574 124.558 138.843 124.396 139.176C124.234 139.51 124.15 139.873 124.145 140.267L124.134 141.026C124.126 141.547 124.209 141.988 124.382 142.349C124.554 142.71 124.8 142.983 125.12 143.168C125.439 143.352 125.81 143.445 126.234 143.445C126.511 143.445 126.764 143.405 126.992 143.325C127.221 143.245 127.418 143.124 127.584 142.964C127.75 142.803 127.879 142.604 127.97 142.367L129.362 142.698C129.237 143.092 129.029 143.438 128.738 143.736C128.446 144.033 128.086 144.266 127.657 144.432C127.227 144.598 126.742 144.682 126.2 144.682ZM132.721 134.394L132.573 144.523H131.084L131.232 134.394H132.721ZM137.757 144.682C137.047 144.682 136.43 144.518 135.905 144.191C135.38 143.865 134.976 143.407 134.692 142.818C134.408 142.229 134.272 141.545 134.284 140.766C134.295 139.975 134.452 139.284 134.753 138.694C135.054 138.103 135.471 137.644 136.006 137.318C136.54 136.991 137.162 136.827 137.872 136.827C138.586 136.827 139.206 136.991 139.732 137.318C140.257 137.644 140.662 138.103 140.946 138.694C141.23 139.284 141.366 139.975 141.354 140.766C141.343 141.545 141.187 142.229 140.885 142.818C140.584 143.407 140.166 143.865 139.631 144.191C139.096 144.518 138.471 144.682 137.757 144.682ZM137.776 143.417C138.236 143.417 138.619 143.296 138.923 143.053C139.227 142.811 139.455 142.488 139.606 142.086C139.758 141.684 139.837 141.243 139.844 140.763C139.851 140.279 139.785 139.834 139.645 139.43C139.505 139.025 139.287 138.701 138.99 138.457C138.693 138.214 138.314 138.092 137.854 138.092C137.396 138.092 137.017 138.214 136.716 138.457C136.415 138.701 136.189 139.024 136.037 139.427C135.886 139.83 135.806 140.275 135.799 140.763C135.792 141.243 135.859 141.684 135.998 142.086C136.138 142.488 136.355 142.811 136.649 143.053C136.943 143.296 137.318 143.417 137.776 143.417ZM142.909 147.365L143.062 136.923H144.513L144.495 138.16H144.618C144.709 138.002 144.835 137.819 144.998 137.611C145.161 137.403 145.388 137.22 145.678 137.063C145.968 136.906 146.348 136.827 146.819 136.827C147.427 136.827 147.966 136.982 148.437 137.29C148.907 137.598 149.276 138.045 149.542 138.629C149.809 139.214 149.936 139.917 149.924 140.741C149.912 141.56 149.766 142.263 149.487 142.85C149.207 143.436 148.828 143.887 148.348 144.202C147.868 144.517 147.32 144.674 146.705 144.674C146.249 144.674 145.877 144.596 145.589 144.439C145.301 144.282 145.076 144.099 144.914 143.89C144.753 143.681 144.629 143.495 144.542 143.334H144.457L144.398 147.365H142.909ZM146.393 143.4C146.827 143.4 147.192 143.282 147.487 143.046C147.783 142.811 148.008 142.491 148.162 142.088C148.316 141.684 148.396 141.231 148.404 140.73C148.411 140.231 148.344 139.783 148.204 139.387C148.064 138.991 147.849 138.678 147.56 138.448C147.272 138.217 146.908 138.102 146.47 138.102C146.045 138.102 145.684 138.212 145.39 138.431C145.095 138.65 144.87 138.956 144.716 139.348C144.561 139.741 144.48 140.201 144.472 140.73C144.464 141.257 144.533 141.721 144.678 142.122C144.823 142.523 145.04 142.836 145.33 143.062C145.62 143.287 145.975 143.4 146.393 143.4ZM154.781 144.682C154.036 144.682 153.396 144.52 152.86 144.196C152.325 143.873 151.916 143.419 151.634 142.834C151.351 142.249 151.216 141.564 151.227 140.777C151.239 139.996 151.392 139.31 151.686 138.717C151.981 138.125 152.392 137.662 152.92 137.328C153.448 136.994 154.064 136.827 154.767 136.827C155.199 136.827 155.616 136.898 156.018 137.04C156.419 137.182 156.777 137.405 157.093 137.709C157.409 138.014 157.657 138.408 157.837 138.892C158.017 139.376 158.102 139.961 158.092 140.646L158.084 141.177H152.05L152.066 140.06H157.333L156.632 140.429C156.639 139.964 156.573 139.554 156.434 139.199C156.296 138.843 156.086 138.565 155.806 138.365C155.525 138.165 155.175 138.064 154.754 138.064C154.333 138.064 153.972 138.166 153.671 138.37C153.37 138.574 153.138 138.843 152.976 139.176C152.815 139.51 152.731 139.873 152.725 140.267L152.714 141.026C152.706 141.547 152.789 141.988 152.962 142.349C153.135 142.71 153.381 142.983 153.7 143.168C154.019 143.352 154.39 143.445 154.814 143.445C155.092 143.445 155.345 143.405 155.573 143.325C155.801 143.245 155.998 143.124 156.164 142.964C156.331 142.803 156.459 142.604 156.55 142.367L157.942 142.698C157.818 143.092 157.61 143.438 157.318 143.736C157.027 144.033 156.666 144.266 156.237 144.432C155.808 144.598 155.322 144.682 154.781 144.682ZM159.665 144.523L159.776 136.923H161.217L161.199 138.143H161.28C161.425 137.73 161.674 137.406 162.025 137.17C162.377 136.934 162.774 136.816 163.216 136.816C163.312 136.816 163.421 136.82 163.543 136.827C163.666 136.834 163.767 136.842 163.845 136.853L163.824 138.28C163.771 138.264 163.667 138.246 163.514 138.228C163.36 138.209 163.204 138.2 163.046 138.2C162.702 138.2 162.392 138.273 162.117 138.419C161.842 138.565 161.625 138.766 161.466 139.023C161.308 139.279 161.226 139.574 161.221 139.909L161.154 144.523H159.665ZM168.828 136.923H170.322L170.204 145.016C170.2 145.53 170.102 145.961 169.91 146.311C169.718 146.661 169.441 146.924 169.078 147.1C168.715 147.277 168.272 147.365 167.749 147.365H167.45L167.468 146.077H167.708C168.056 146.077 168.308 145.986 168.466 145.802C168.623 145.619 168.704 145.354 168.709 145.006L168.828 136.923ZM169.595 135.763C169.339 135.763 169.121 135.676 168.939 135.502C168.758 135.327 168.669 135.118 168.673 134.875C168.676 134.626 168.771 134.415 168.958 134.244C169.144 134.072 169.365 133.986 169.621 133.986C169.88 133.986 170.1 134.072 170.281 134.243C170.463 134.415 170.552 134.626 170.548 134.875C170.545 135.119 170.45 135.328 170.263 135.502C170.076 135.676 169.854 135.763 169.595 135.763ZM175.395 144.682C174.685 144.682 174.067 144.518 173.543 144.191C173.018 143.865 172.614 143.407 172.33 142.818C172.046 142.229 171.91 141.545 171.922 140.766C171.933 139.975 172.09 139.284 172.391 138.694C172.692 138.103 173.109 137.644 173.643 137.318C174.178 136.991 174.8 136.827 175.51 136.827C176.224 136.827 176.844 136.991 177.37 137.318C177.895 137.644 178.3 138.103 178.584 138.694C178.868 139.284 179.004 139.975 178.992 140.766C178.981 141.545 178.824 142.229 178.523 142.818C178.222 143.407 177.804 143.865 177.269 144.191C176.734 144.518 176.109 144.682 175.395 144.682ZM175.414 143.417C175.874 143.417 176.256 143.296 176.561 143.053C176.865 142.811 177.093 142.488 177.244 142.086C177.396 141.684 177.475 141.243 177.482 140.763C177.489 140.279 177.423 139.834 177.283 139.43C177.143 139.025 176.925 138.701 176.628 138.457C176.331 138.214 175.952 138.092 175.492 138.092C175.034 138.092 174.655 138.214 174.354 138.457C174.053 138.701 173.827 139.024 173.675 139.427C173.524 139.83 173.444 140.275 173.437 140.763C173.43 141.243 173.496 141.684 173.636 142.086C173.776 142.488 173.993 142.811 174.287 143.053C174.581 143.296 174.956 143.417 175.414 143.417ZM184.342 144.674C183.887 144.674 183.515 144.596 183.227 144.439C182.939 144.282 182.714 144.099 182.552 143.89C182.391 143.681 182.267 143.495 182.18 143.334H182.057L182.04 144.523H180.589L180.737 134.394H182.226L182.171 138.16H182.256C182.346 138.002 182.473 137.819 182.636 137.611C182.799 137.403 183.026 137.22 183.316 137.063C183.605 136.906 183.986 136.827 184.457 136.827C185.065 136.827 185.604 136.982 186.075 137.29C186.545 137.598 186.914 138.045 187.18 138.629C187.447 139.214 187.574 139.917 187.562 140.741C187.55 141.56 187.404 142.263 187.125 142.85C186.845 143.436 186.466 143.887 185.986 144.202C185.506 144.517 184.958 144.674 184.342 144.674ZM184.031 143.4C184.465 143.4 184.83 143.282 185.125 143.046C185.421 142.811 185.646 142.491 185.8 142.088C185.954 141.684 186.034 141.231 186.042 140.73C186.049 140.231 185.982 139.783 185.842 139.387C185.702 138.991 185.487 138.678 185.198 138.448C184.909 138.217 184.546 138.102 184.108 138.102C183.683 138.102 183.322 138.212 183.028 138.431C182.733 138.65 182.508 138.956 182.354 139.348C182.199 139.741 182.118 140.201 182.11 140.73C182.102 141.257 182.171 141.721 182.316 142.122C182.461 142.523 182.678 142.836 182.968 143.062C183.258 143.287 183.612 143.4 184.031 143.4ZM191.874 144.682C191.325 144.682 190.839 144.602 190.415 144.442C189.992 144.283 189.645 144.048 189.376 143.738C189.107 143.427 188.931 143.049 188.849 142.603L190.255 142.308C190.355 142.704 190.544 142.996 190.824 143.185C191.104 143.374 191.463 143.468 191.903 143.468C192.383 143.468 192.767 143.368 193.054 143.167C193.341 142.967 193.487 142.724 193.491 142.44C193.495 142.198 193.41 141.998 193.237 141.84C193.064 141.681 192.798 141.562 192.439 141.481L191.169 141.192C190.471 141.033 189.953 140.779 189.615 140.431C189.277 140.084 189.112 139.636 189.12 139.09C189.127 138.638 189.258 138.242 189.514 137.903C189.769 137.564 190.118 137.3 190.561 137.111C191.003 136.922 191.51 136.827 192.08 136.827C192.626 136.827 193.092 136.907 193.478 137.067C193.863 137.226 194.175 137.448 194.413 137.732C194.65 138.015 194.819 138.345 194.92 138.722L193.58 139.019C193.488 138.751 193.327 138.516 193.096 138.313C192.865 138.11 192.526 138.008 192.078 138.008C191.666 138.008 191.321 138.101 191.043 138.287C190.765 138.473 190.624 138.711 190.619 139C190.616 139.25 190.705 139.454 190.886 139.612C191.068 139.769 191.365 139.895 191.778 139.989L192.99 140.261C193.689 140.42 194.205 140.669 194.539 141.01C194.873 141.351 195.036 141.786 195.028 142.314C195.021 142.777 194.883 143.186 194.615 143.541C194.346 143.897 193.976 144.176 193.504 144.378C193.032 144.58 192.489 144.682 191.874 144.682ZM204.183 136.923L204.165 138.138H199.549L199.567 136.923H204.183ZM200.894 144.523L201.018 136.053C201.025 135.58 201.135 135.185 201.347 134.869C201.56 134.554 201.839 134.316 202.185 134.157C202.531 133.997 202.903 133.918 203.302 133.918C203.601 133.918 203.857 133.942 204.071 133.991C204.285 134.04 204.442 134.084 204.543 134.124L204.177 135.335C204.108 135.312 204.02 135.287 203.914 135.261C203.808 135.236 203.675 135.223 203.516 135.223C203.163 135.223 202.907 135.312 202.748 135.489C202.588 135.667 202.506 135.923 202.501 136.256L202.38 144.523H200.894ZM208.389 144.682C207.679 144.682 207.062 144.518 206.537 144.191C206.012 143.865 205.608 143.407 205.324 142.818C205.041 142.229 204.904 141.545 204.916 140.766C204.927 139.975 205.084 139.284 205.385 138.694C205.686 138.103 206.103 137.644 206.638 137.318C207.172 136.991 207.794 136.827 208.504 136.827C209.218 136.827 209.838 136.991 210.364 137.318C210.889 137.644 211.294 138.103 211.578 138.694C211.862 139.284 211.998 139.975 211.986 140.766C211.975 141.545 211.819 142.229 211.517 142.818C211.216 143.407 210.798 143.865 210.263 144.191C209.728 144.518 209.103 144.682 208.389 144.682ZM208.408 143.417C208.868 143.417 209.251 143.296 209.555 143.053C209.859 142.811 210.087 142.488 210.238 142.086C210.39 141.684 210.469 141.243 210.476 140.763C210.483 140.279 210.417 139.834 210.277 139.43C210.137 139.025 209.919 138.701 209.622 138.457C209.325 138.214 208.946 138.092 208.486 138.092C208.028 138.092 207.649 138.214 207.348 138.457C207.047 138.701 206.821 139.024 206.669 139.427C206.518 139.83 206.438 140.275 206.431 140.763C206.424 141.243 206.491 141.684 206.63 142.086C206.77 142.488 206.987 142.811 207.281 143.053C207.575 143.296 207.95 143.417 208.408 143.417ZM216.161 144.618C215.647 144.618 215.197 144.51 214.812 144.293C214.428 144.076 214.131 143.754 213.923 143.328C213.714 142.901 213.614 142.376 213.624 141.752L213.694 136.923H215.183L215.115 141.566C215.107 142.113 215.244 142.541 215.525 142.851C215.806 143.161 216.194 143.316 216.689 143.316C217.026 143.316 217.327 143.243 217.594 143.095C217.86 142.947 218.072 142.732 218.229 142.448C218.386 142.165 218.468 141.824 218.474 141.426L218.54 136.923H220.034L219.923 144.523H218.498L218.515 142.663H218.663C218.43 143.35 218.099 143.847 217.672 144.156C217.245 144.464 216.741 144.618 216.161 144.618ZM223.478 140.02L223.412 144.523H221.923L222.034 136.923H223.454L223.442 138.783H223.288C223.518 138.104 223.845 137.608 224.268 137.296C224.692 136.983 225.201 136.827 225.797 136.827C226.311 136.827 226.76 136.936 227.142 137.153C227.525 137.37 227.82 137.691 228.029 138.116C228.238 138.541 228.337 139.067 228.328 139.694L228.257 144.523H226.768L226.836 139.88C226.844 139.333 226.709 138.905 226.429 138.595C226.15 138.284 225.763 138.129 225.268 138.129C224.932 138.129 224.63 138.203 224.361 138.351C224.093 138.499 223.88 138.713 223.723 138.994C223.565 139.275 223.484 139.617 223.478 140.02ZM233.074 144.674C232.463 144.674 231.921 144.517 231.448 144.202C230.975 143.887 230.607 143.436 230.345 142.85C230.083 142.263 229.958 141.56 229.97 140.741C229.982 139.917 230.13 139.214 230.413 138.629C230.697 138.045 231.079 137.598 231.561 137.29C232.043 136.982 232.586 136.827 233.189 136.827C233.66 136.827 234.038 136.906 234.323 137.063C234.609 137.22 234.831 137.403 234.99 137.611C235.149 137.819 235.27 138.002 235.351 138.16H235.436L235.491 134.394H236.98L236.832 144.523H235.381L235.398 143.334H235.275C235.188 143.495 235.059 143.681 234.89 143.89C234.72 144.099 234.49 144.282 234.2 144.439C233.909 144.596 233.534 144.674 233.074 144.674ZM233.423 143.4C233.845 143.4 234.203 143.287 234.498 143.062C234.793 142.836 235.019 142.523 235.175 142.122C235.332 141.721 235.414 141.257 235.422 140.73C235.429 140.201 235.362 139.741 235.219 139.348C235.075 138.956 234.86 138.65 234.571 138.431C234.283 138.212 233.926 138.102 233.5 138.102C233.063 138.102 232.697 138.217 232.401 138.448C232.105 138.678 231.881 138.991 231.729 139.387C231.577 139.783 231.497 140.231 231.49 140.73C231.483 141.231 231.55 141.684 231.692 142.088C231.834 142.491 232.051 142.811 232.342 143.046C232.633 143.282 232.993 143.4 233.423 143.4Z" fill="#425466"/>
<defs>
<filter id="filter0_ddi_1_146" x="0" y="0" width="352.941" height="245.775" filterUnits="userSpaceOnUse" color-interpolation-filters="sRGB">
<feFlood flood-opacity="0" result="BackgroundImageFix"/>
<feColorMatrix in="SourceAlpha" type="matrix" values="0 0 0 0 0 0 0 0 0 0 0 0 0 0 0 0 0 0 127 0" result="hardAlpha"/>
<feMorphology radius="18" operator="erode" in="SourceAlpha" result="effect1_dropShadow_1_146"/>
<feOffset dy="18"/>
<feGaussianBlur stdDeviation="18"/>
<feComposite in2="hardAlpha" operator="out"/>
<feColorMatrix type="matrix" values="0 0 0 0 0 0 0 0 0 0 0 0 0 0 0 0 0 0 0.3 0"/>
<feBlend mode="normal" in2="BackgroundImageFix" result="effect1_dropShadow_1_146"/>
<feColorMatrix in="SourceAlpha" type="matrix" values="0 0 0 0 0 0 0 0 0 0 0 0 0 0 0 0 0 0 127 0" result="hardAlpha"/>
<feMorphology radius="12" operator="erode" in="SourceAlpha" result="effect2_dropShadow_1_146"/>
<feOffset dy="30"/>
<feGaussianBlur stdDeviation="30"/>
<feComposite in2="hardAlpha" operator="out"/>
<feColorMatrix type="matrix" values="0 0 0 0 0.196078 0 0 0 0 0.196078 0 0 0 0 0.364706 0 0 0 0.25 0"/>
<feBlend mode="normal" in2="effect1_dropShadow_1_146" result="effect2_dropShadow_1_146"/>
<feBlend mode="normal" in="SourceGraphic" in2="effect2_dropShadow_1_146" result="shape"/>
<feColorMatrix in="SourceAlpha" type="matrix" values="0 0 0 0 0 0 0 0 0 0 0 0 0 0 0 0 0 0 127 0" result="hardAlpha"/>
<feMorphology radius="1" operator="erode" in="SourceAlpha" result="effect3_innerShadow_1_146"/>
<feOffset/>
<feComposite in2="hardAlpha" operator="arithmetic" k2="-1" k3="1"/>
<feColorMatrix type="matrix" values="0 0 0 0 0.0392157 0 0 0 0 0.145098 0 0 0 0 0.25098 0 0 0 0.05 0"/>
<feBlend mode="normal" in2="shape" result="effect3_innerShadow_1_146"/>
</filter>
</defs>
</svg>
